<svg width="1282" height="722" xmlns="http://www.w3.org/2000/svg" xmlns:xlink="http://www.w3.org/1999/xlink" overflow="hidden"><g transform="translate(1 1)"><rect x="0" y="0" width="1280" height="720" fill="#FFFFFF"/><g><g><g><path d="M382.667 382.667 607.765 382.667 607.765 607.765 382.667 607.765Z" fill="#FEBA08" transform="matrix(1.00006 0 0 1 279.995 0.087286)"/><path d="M112.549 382.667 337.647 382.667 337.647 607.765 112.549 607.765Z" fill="#05A6F0" transform="matrix(1.00006 0 0 1 279.995 0.087286)"/><path d="M382.667 112.549 607.765 112.549 607.765 337.647 382.667 337.647Z" fill="#80BC06" transform="matrix(1.00006 0 0 1 279.995 0.087286)"/><path d="M112.549 112.549 337.647 112.549 337.647 337.647 112.549 337.647Z" fill="#F25325" transform="matrix(1.00006 0 0 1 279.995 0.087286)"/></g></g></g></g></svg>